<svg width="48" height="48" viewBox="0 0 48 48" xmlns="http://www.w3.org/2000/svg" aria-hidden="true">
  <path d="M44.5 20H24V28.5H35.8C34.9 33.7 30.4 37 24 37C16.5 37 10.5 31 10.5 23.5C10.5 16 16.5 10 24 10C27.3 10 30.2 11.2 32.5 13.2L38.5 7.2C34.7 3.7 29.7 1.5 24 1.5C11.6 1.5 1.5 11.6 1.5 24C1.5 36.4 11.6 46.5 24 46.5C35.3 46.5 45.5 38.3 45.5 24.5C45.5 22.9 45.2 21.4 44.5 20Z" fill="#FFC107"/>
  <path d="M6.4 14.6L13.4 19.7C15.3 14.9 19.3 11.5 24 11.5C27.3 11.5 30.2 12.7 32.5 14.7L38.5 8.7C34.7 5.2 29.7 3 24 3C16.3 3 9.7 7.2 6.4 14.6Z" fill="#FF3D00"/>
  <path d="M24 45C29.6 45 34.5 42.9 38.2 39.5L31.6 34.1C29.4 35.7 26.8 36.6 24 36.6C17.7 36.6 13.2 32.5 11.9 26.9L4.8 32.3C8.1 39.8 15.4 45 24 45Z" fill="#4CAF50"/>
  <path d="M45.5 24.5C45.5 22.9 45.2 21.4 44.5 20H24V28.5H35.8C35.2 31.5 33.6 33.8 31.6 35.4L38.2 40.8C42.2 37.1 45.5 31.7 45.5 24.5Z" fill="#1976D2"/>
</svg>
